<svg xmlns="http://www.w3.org/2000/svg">
  <symbol id="home" width="43" height="44" viewBox="0 0 43 44" fill="none">
    <path fill-rule="evenodd" clip-rule="evenodd" d="M13.4375 12.3701V5.23369C13.4375 4.84345 13.1134 4.53125 12.7217 4.53125H8.79177C8.38662 4.53125 8.0625 4.84345 8.0625 5.23369V16.8517L6.71875 17.9721V39.4721H36.2812V19.3158L21.5941 5.56924L13.4375 12.3701Z" fill="#FFD08F"/>
    <path d="M22.6825 3.66117L39.8288 20.5521C40.4737 21.1837 40.4737 22.2049 39.8288 22.823C39.1972 23.4546 38.1625 23.4546 37.5175 22.823L21.5269 7.0743L5.4825 22.8768C4.85094 23.5084 3.81625 23.5084 3.17125 22.8768C2.52625 22.2452 2.52625 21.224 3.17125 20.5924L20.3713 3.66117C21.0028 3.02961 22.0375 3.02961 22.6825 3.66117Z" fill="#FF720C"/>
    <path d="M18.4242 29.5541H11.7921C11.0483 29.5541 10.4595 28.9653 10.4595 28.2215V21.5894C10.4595 20.8612 11.0483 20.2568 11.7921 20.2568H18.4242C19.1524 20.2568 19.7568 20.8457 19.7568 21.5894V28.2215C19.7568 28.9653 19.1679 29.5541 18.4242 29.5541Z" fill="#83CBFF"/>
    <path d="M31.2079 29.5541H24.5758C23.8321 29.5541 23.2432 28.9653 23.2432 28.2215V21.5894C23.2432 20.8612 23.8321 20.2568 24.5758 20.2568H31.2079C31.9362 20.2568 32.5405 20.8457 32.5405 21.5894V28.2215C32.5405 28.9653 31.9517 29.5541 31.2079 29.5541Z" fill="#83CBFF"/>
    <rect x="3.48645" y="37.6895" width="37.1892" height="3.48649" rx="1.74324" fill="#D1D1D1"/>
  </symbol>
  <symbol id="explore" width="42" height="42" viewBox="0 0 42 42" fill="none" xmlns="http://www.w3.org/2000/svg">
    <path d="M20.3438 36.75C28.6798 36.75 35.4375 29.9923 35.4375 21.6562C35.4375 13.3202 28.6798 6.5625 20.3438 6.5625C12.0077 6.5625 5.25 13.3202 5.25 21.6562C5.25 29.9923 12.0077 36.75 20.3438 36.75Z" fill="#F4F4F4"/>
    <path d="M33.8182 10.1495C34.3128 10.3745 34.8612 10.5 35.4375 10.5C37.6031 10.5 39.375 8.72813 39.375 6.5625C39.375 4.39688 37.6031 2.625 35.4375 2.625C33.2719 2.625 31.5 4.39688 31.5 6.5625C31.5 7.1388 31.6255 7.68722 31.8505 8.18178C28.7546 5.53549 24.7358 3.9375 20.3438 3.9375C10.558 3.9375 2.625 11.8705 2.625 21.6562C2.625 31.442 10.558 39.375 20.3438 39.375C30.1295 39.375 38.0625 31.442 38.0625 21.6562C38.0625 17.2642 36.4645 13.2454 33.8182 10.1495ZM33.3244 6.54938C33.3244 5.38125 34.2694 4.43625 35.4375 4.43625C36.5925 4.43625 37.5506 5.38125 37.5506 6.54938C37.5506 7.7175 36.6056 8.6625 35.4375 8.6625C34.2694 8.6625 33.3244 7.7175 33.3244 6.54938ZM34.125 21.6562C34.125 29.2674 27.9549 35.4375 20.3438 35.4375C12.7326 35.4375 6.5625 29.2674 6.5625 21.6562C6.5625 14.0451 12.7326 7.875 20.3438 7.875C27.9549 7.875 34.125 14.0451 34.125 21.6562Z" fill="#F9C23C"/>
    <path d="M33.2719 10.4996L31.4869 8.71465L33.2719 6.92965C33.7575 6.44402 34.5581 6.44402 35.0569 6.92965C35.5425 7.41527 35.5425 8.2159 35.0569 8.71465L33.2719 10.4996Z" fill="#FFB02E"/>
    <path d="M17.3557 23.2624L14.9755 26.5253C14.7392 26.8403 15.133 27.2341 15.4611 27.0109L18.7339 24.6235L19.963 32.484C20.0286 32.9171 20.6586 32.9171 20.7242 32.484L22.137 23.4492L31.1718 22.0365C31.6049 21.9709 31.6049 21.3409 31.1718 21.2752L23.3112 20.0461L25.6986 16.7734C25.9349 16.4584 25.5411 16.0647 25.213 16.2878L21.9502 18.668L20.7242 10.8278C20.6586 10.3946 20.0286 10.3946 19.963 10.8278L18.5503 19.8625L9.51552 21.2752C9.08239 21.3409 9.08239 21.9709 9.51552 22.0365L17.3557 23.2624Z" fill="#9B9B9B"/>
    <path d="M22.7564 19.6875L27.4828 27.9918C27.7766 28.5148 27.2018 29.0888 26.678 28.7954L18.375 24.0629L22.7564 19.6875Z" fill="#9B9B9B"/>
    <path d="M17.9493 23.625L13.2044 15.3195C12.9118 14.7972 13.4842 14.224 14.0058 14.517L22.3125 19.2557L17.9493 23.625Z" fill="#FF720C"/>
    <path d="M20.3438 24.9375C22.1559 24.9375 23.625 23.4684 23.625 21.6562C23.625 19.8441 22.1559 18.375 20.3438 18.375C18.5316 18.375 17.0625 19.8441 17.0625 21.6562C17.0625 23.4684 18.5316 24.9375 20.3438 24.9375Z" fill="#D3D3D3"/>
  </symbol>
  <symbol id="album" width="42" height="42" viewBox="0 0 42 42" fill="none" xmlns="http://www.w3.org/2000/svg">
    <path d="M2.625 2.625L21 6.5625L39.375 2.625V39.375L21 35.4375L2.625 39.375V2.625Z" fill="#FF720C"/>
    <path d="M39.375 2.625H2.625L21 21L39.375 2.625Z" fill="#FF720C"/>
    <path d="M39.375 39.375H2.625L21 21L39.375 39.375Z" fill="#FF720C"/>
    <path d="M6.5625 6.5625H35.4375V12.0278L23.625 28.875L6.5625 24.9375L6.56262 21L8.53125 17.0625L6.56273 13.125L6.5625 6.5625Z" fill="#AEDDFF"/>
    <path d="M10.5 22.9687L6.5625 24.9375V35.4374H35.4375V15.75C33.4688 15.75 32.1562 16.4062 30.1875 18.375L24.2812 24.2812C22.9688 25.5938 22.3125 26.25 21 25.5938L15.75 22.9687C13.65 21.9187 11.5938 22.3124 10.5 22.9687Z" fill="#96C34A"/>
    <path d="M35.4375 35.19V35.4375H6.5625V35.19C9.9273 31.8045 15.1437 29.5312 21 29.5312C26.8562 29.5312 32.0727 31.8045 35.4375 35.19Z" fill="#96C34A"/>
    <path d="M32.3753 13.2745C33.0972 12.3827 34.2008 11.8125 35.4375 11.8125V19.6875C34.4236 19.6875 33.4992 19.3043 32.8013 18.6748C32.6481 20.7094 30.9488 22.3125 28.875 22.3125C26.7004 22.3125 24.9375 20.5496 24.9375 18.375C24.9375 16.2004 26.7004 14.4375 28.875 14.4375C28.9905 14.4375 29.1048 14.4425 29.2177 14.4522C29.6695 13.6595 30.5223 13.125 31.5 13.125C31.8069 13.125 32.1016 13.1777 32.3753 13.2745Z" fill="white"/>
    <path d="M6.5625 21V13.125C7.85062 13.125 8.99427 13.7435 9.71264 14.6998C9.93198 14.5351 10.2046 14.4375 10.5 14.4375C11.2249 14.4375 11.8125 15.0251 11.8125 15.75C13.2622 15.75 14.4375 16.9253 14.4375 18.375C14.4375 19.8247 13.2622 21 11.8125 21H6.5625Z" fill="white"/>
    <path d="M19.6875 13.7812C19.6875 16.3183 17.6308 18.375 15.0938 18.375C12.5567 18.375 10.5 16.3183 10.5 13.7812C10.5 11.2442 12.5567 9.1875 15.0938 9.1875C17.6308 9.1875 19.6875 11.2442 19.6875 13.7812Z" fill="#F9C23C"/>
  </symbol>
  <symbol id="friend" width="44" height="44" viewBox="0 0 44 44" fill="none" xmlns="http://www.w3.org/2000/svg">
    <path d="M13.0176 15.0676C13.396 14.2828 13.8658 13.5612 14.453 12.9029C15.3143 11.9661 16.0973 11.2951 16.1103 11.2824C16.5801 10.89 16.6323 10.1937 16.2278 9.72531C15.8232 9.26956 15.1055 9.21892 14.6357 9.61137C14.5966 9.64935 14.1137 10.0545 13.4874 10.6748C13.396 10.7634 13.2394 10.7001 13.2525 10.5862C13.4613 8.50999 13.644 6.97818 13.7875 5.88945C13.8528 5.34509 13.6048 4.80073 13.0567 4.66148C12.5087 4.52222 11.9475 4.83871 11.7909 5.37041C11.7909 5.42105 11.6865 6.57307 11.4516 7.96562C11.4255 8.11754 11.3994 8.28211 11.3864 8.43403C11.3733 8.47201 11.3342 8.50999 11.282 8.49733C11.2428 8.48467 11.2167 8.44669 11.2298 8.42137C11.3603 6.45914 11.5169 4.67414 11.5169 4.63616C11.6213 4.09179 11.2689 3.56009 10.7078 3.45882C10.1467 3.34488 9.5986 3.69935 9.49421 4.24371C9.46811 4.31967 9.37676 6.19328 9.20712 7.81371C9.20712 7.85169 9.14187 7.85169 9.14187 7.81371L9.07662 5.33243C9.03747 4.77541 8.56769 4.35765 8.00656 4.38296C7.41933 4.40828 6.97564 4.90201 7.01479 5.45903L7.18444 8.1935C7.18444 8.26945 7.06699 8.28211 7.06699 8.20616C6.94954 7.4086 6.87125 6.85158 6.87125 6.83892C6.79295 6.29456 6.27097 5.90211 5.69679 5.97807C5.13566 6.05403 4.74417 6.56041 4.82247 7.10477C5.16176 9.52275 5.70984 13.4725 5.74899 13.9789C5.74899 14.0042 5.74899 14.0169 5.76204 14.0296C5.87948 14.8398 6.28402 15.612 6.94954 16.207C8.48939 17.5869 10.9166 17.4983 12.3521 16.0171C12.6261 15.7386 12.8479 15.4095 13.0176 15.0676Z" fill="#FFC83D"/>
    <path d="M12.375 19.25H6.875V17.0798C6.875 16.7485 7.08654 16.5 7.33774 16.5H11.899C12.1635 16.5 12.3618 16.7651 12.3618 17.0798V19.25H12.375Z" fill="#0092E7"/>
    <path d="M29.5625 28.875C33 28.875 39.875 33.6875 39.875 41.25H15.125V36.4375C15.125 36.0571 14.8912 35.7048 14.5534 35.578L10.3125 33.6875C6.875 32.3125 5.5 28.875 5.5 26.5402V19.2699C5.5 18.495 6.08461 17.875 6.78614 17.875L12.4639 17.875C13.1784 17.875 13.75 18.509 13.75 19.2699V24.75C13.75 26.5402 15.125 26.8125 15.125 26.8125L23.375 28.875H29.5625Z" fill="#00A6ED"/>
    <path d="M26.4924 33.2931C24.7712 33.2931 23.375 31.8968 23.375 30.1756V26.4924C23.375 24.7712 24.7712 23.375 26.4924 23.375C28.2137 23.375 29.6099 24.7712 29.6099 26.4924V30.1756C29.6099 31.8968 28.2137 33.2931 26.4924 33.2931Z" fill="#FCB100"/>
    <path d="M21.6562 19.25C21.6562 20.7688 20.425 22 18.9062 22C17.3875 22 16.1562 20.7688 16.1562 19.25C16.1562 17.7312 17.3875 16.5 18.9062 16.5C20.425 16.5 21.6562 17.7312 21.6562 19.25Z" fill="#FDBB11"/>
    <path d="M37.3838 19.25C37.3838 20.7688 36.1526 22 34.6338 22C33.115 22 31.8838 20.7688 31.8838 19.25C31.8838 17.7312 33.115 16.5 34.6338 16.5C36.1526 16.5 37.3838 17.7312 37.3838 19.25Z" fill="#FDBB11"/>
    <path d="M26.1038 7.48926C21.5319 7.48926 17.9188 11.2888 18.2384 15.7557L18.8777 24.7302C19.1556 27.5492 21.4207 29.5511 24.1722 29.5511H29.4528C32.2043 29.5511 34.4694 27.5356 34.7473 24.7302L35.3866 15.7557C35.7062 11.2888 32.0931 7.48926 27.5212 7.48926H26.1038Z" fill="#FFC83D"/>
    <path d="M35.3478 9.10358L34.6602 8.78015C34.1652 8.54728 33.7251 8.24973 33.3401 7.88749L31.9925 6.63258C30.9887 5.68816 29.4898 5.36473 28.1422 5.8046C27.2759 6.08921 26.3271 6.08921 25.447 5.8046C24.2644 5.2483 22.8343 5.46823 21.8992 6.34796L20.2491 7.88749C19.864 8.24973 19.4103 8.54728 18.929 8.78015L18.2414 9.10358C16.9901 9.69869 16.3025 11.0053 16.55 12.3249L17.4714 17.047C17.5676 17.5128 17.9939 17.8621 18.5027 17.875C18.5027 17.875 18.4064 16.5295 18.3514 15.6627C18.3239 15.2229 18.5027 14.783 18.8602 14.4984L19.1627 14.2526C19.5753 13.9033 19.809 13.4117 19.809 12.8942V11.5616C19.809 11.1865 20.0841 10.863 20.4691 10.7725C21.5142 10.5267 23.7281 10.1127 26.8221 10.1127C29.9161 10.1127 32.13 10.5267 33.1751 10.7725C33.5601 10.863 33.8352 11.1865 33.8352 11.5616V12.8812C33.8352 13.3987 34.0689 13.8903 34.4815 14.2396L34.7977 14.5113C35.1553 14.8089 35.334 15.2358 35.3065 15.6886C35.2515 16.5425 35.1553 17.875 35.1553 17.875C35.6503 17.8491 36.0628 17.5128 36.1591 17.047L37.0804 12.3249C37.3142 11.0053 36.6129 9.69869 35.3478 9.10358Z" fill="#F1A11E"/>
  </symbol>
  <symbol id="chat" width="43" height="38" viewBox="0 0 43 38" fill="none" xmlns="http://www.w3.org/2000/svg">
    <path d="M32.2864 5.815L0.377172 16.9314C-0.151819 17.1155 -0.115126 17.8595 0.429154 17.9928L16.1644 21.8429C16.2668 21.8684 16.3585 21.9193 16.4289 21.9911L32.8796 5.94822C32.7343 5.80452 32.5126 5.73715 32.2864 5.815Z" fill="url(#paint0_linear_2487_2228)"/>
    <path d="M16.4291 21.9921C16.5009 22.0625 16.5529 22.1523 16.5774 22.2526L20.3598 37.5755C20.4913 38.1099 21.2512 38.1518 21.4438 37.6353L33.0082 6.52854C33.0908 6.30849 33.0235 6.09143 32.8783 5.94922L16.4291 21.9921Z" fill="url(#paint1_linear_2487_2228)"/>
    <circle cx="32.6308" cy="10.3261" r="10.3261" fill="#FF2F40"/>
    <path d="M30.2939 15V13.691H32.0429V8.543H30.5689V7.542C31.3829 7.388 31.9439 7.179 32.4609 6.849H33.6599V13.691H35.1889V15H30.2939Z" fill="white"/>
    <defs>
    <linearGradient id="paint0_linear_2487_2228" x1="1.5697" y1="19.4343" x2="33.4025" y2="11.3722" gradientUnits="userSpaceOnUse">
    <stop stop-color="#FF860B"/>
    <stop offset="1" stop-color="#FFAA3F"/>
    </linearGradient>
    <linearGradient id="paint1_linear_2487_2228" x1="16.4291" y1="21.9742" x2="33.0434" y2="21.9742" gradientUnits="userSpaceOnUse">
    <stop stop-color="#FFAC00"/>
    <stop offset="0.96" stop-color="#FFD055"/>
    </linearGradient>
    </defs>
  </symbol>
</svg>
